<svg id="Layer_1" data-name="Layer 1" xmlns="http://www.w3.org/2000/svg" viewBox="0 0 600 769.2"><defs><style>.cls-1{fill:#c43737;}</style></defs><path class="cls-1" d="M573.59,446.78v59.69H419.4a122.36,122.36,0,0,0,4.84-29.84h.11V446.78Z"/><path class="cls-1" d="M573.59,297.55H424.35a124.35,124.35,0,1,0-248.7,0V476.63h.11a122.36,122.36,0,0,0,4.84,29.84H26.41V297.55a273.59,273.59,0,1,1,547.18,0Z"/><path class="cls-1" d="M573.59,536.32v29.85H380.8a126.5,126.5,0,0,0,11.28-10.93,124.82,124.82,0,0,0,14.15-18.92Z"/><rect class="cls-1" x="26.41" y="655.71" width="547.18" height="29.84"/><path class="cls-1" d="M219.2,566.17H26.41V536.32H193.77a124.82,124.82,0,0,0,14.15,18.92A126.5,126.5,0,0,0,219.2,566.17Z"/><rect class="cls-1" x="26.41" y="596.01" width="547.18" height="29.85"/><rect class="cls-1" x="26.41" y="715.4" width="547.18" height="29.85"/></svg>