<svg id="Layer_1" data-name="Layer 1" xmlns="http://www.w3.org/2000/svg" viewBox="0 0 1426.46 646.08"><defs><style>.cls-1{fill:#fff;}</style></defs><path class="cls-1" d="M470.13,371.54V418.1H349.86a95.6,95.6,0,0,0,3.78-23.28h.09V371.54Z"/><path class="cls-1" d="M470.13,255.14H353.73a97,97,0,0,0-194,0V394.82h.09a96.07,96.07,0,0,0,3.77,23.28H43.34v-163a213.4,213.4,0,1,1,426.79,0Z"/><path class="cls-1" d="M470.13,441.38v23.28H319.76a101.1,101.1,0,0,0,8.8-8.52,98.29,98.29,0,0,0,11-14.76Z"/><rect class="cls-1" x="43.34" y="534.5" width="426.79" height="23.27"/><path class="cls-1" d="M193.71,464.66H43.34V441.38H173.87a96.37,96.37,0,0,0,19.84,23.28Z"/><rect class="cls-1" x="43.34" y="487.93" width="426.79" height="23.28"/><rect class="cls-1" x="43.34" y="581.05" width="426.79" height="23.28"/><path class="cls-1" d="M1139.12,436.09q-8.28-10.66-22.72-16.76a83.18,83.18,0,0,0-32.35-6.06,82,82,0,0,0-30.63,5.52q-13.77,5.54-21.94,15.13a37.86,37.86,0,0,0-9.2,21.46l-.24,1.89s-.1,1.83-.17,4h44.95c1.15-3.62,5.08-11.13,18.14-11.13,0,0,16.86-.92,18,15.29,0,.58.07,1.19.07,1.8v6.46h-27.28q-27.27,0-41.6,11.34t-14.29,32.09q0,19.7,12.7,29.82t34.08,10.12q24.63,0,34.76-15.1l0,0c.07-.1.31-.41.58-.81a16.19,16.19,0,0,0,1-1.6V555h44.37V459.68A37.59,37.59,0,0,0,1139.12,436.09ZM1103,505.84a16.93,16.93,0,0,1-6.57,13.88q-6.56,5.28-16.72,5.28c-4.81,0-8.56-1.18-11.2-3.52a11.88,11.88,0,0,1-4-9.44c0-4.67,1.82-8.19,5.48-10.53s8.87-3.52,15.64-3.52H1103Z"/><path class="cls-1" d="M729.06,366.05V490.71q0,19.69-8.84,34.83a59.58,59.58,0,0,1-25,23.32q-16.2,8.22-37.3,8.22c-14.08,0-26.54-2.74-37.3-8.22a60.28,60.28,0,0,1-25.15-23.32q-8.94-15.13-9-34.83V366.05h44.41V490.71c0,8.46,2.43,15.27,7.34,20.38s11.44,7.68,19.67,7.68c8,0,14.45-2.57,19.36-7.68s7.38-11.92,7.38-20.38V366.05Z"/><path class="cls-1" d="M867.12,454.29Q861,435.15,847.05,424.2A50.51,50.51,0,0,0,815,413.27q-20.06,0-30.73,14.86l0,0a29.11,29.11,0,0,0-1.6,2.54V415.44H738.23V604.33H782.6V542a16.8,16.8,0,0,0,1.43,2.16l.2.27q9.9,12.65,29.14,12.66t32.77-10.39a59.11,59.11,0,0,0,19.63-27.11q5.63-14.82,5.62-34A111,111,0,0,0,867.12,454.29ZM819.8,509.05c-3.59,6.51-9,9.72-16.31,9.72q-10.2,0-15.77-9.45c-3.42-6.09-5.12-14.21-5.12-24.26,0-9.38,1.53-17.1,4.57-23.22q5.6-10.26,16.32-10.26,11.22,0,16.82,10.26,4.83,8.37,4.81,23C825.12,494.84,823.36,503,819.8,509.05Z"/><path class="cls-1" d="M967.27,366.05V428.3a21.59,21.59,0,0,0-1.28-2l0,0c-.1-.1-.16-.21-.27-.34q-9.9-12.69-29.14-12.69t-32.76,10.25a58.23,58.23,0,0,0-19.63,27q-5.64,15.13-5.62,34a111.19,111.19,0,0,0,4.26,31.31q5.9,19.14,19.94,30.2a50.47,50.47,0,0,0,32.19,11.06q20.05,0,30.76-14.82s.71-1,1.59-2.34v15h44.41V366.05Zm-4.53,142.19c-3.76,7-9.17,10.53-16.32,10.53q-11.22,0-16.85-10.26c-3.18-5.92-4.81-13.67-4.81-23.18,0-9.92,1.8-17.91,5.35-24,3.59-6.47,9-9.72,16.31-9.72,6.77,0,12.05,3.15,15.78,9.45q5.07,8.63,5.07,24.3Q967.27,499.6,962.74,508.24Z"/><path class="cls-1" d="M1217,452.67v49.11c0,10.25,4.09,15.37,12.32,15.37h13.1V555.7h-17.67c-1.63,0-3,0-4.26,0q-23.27,0-34.5-7.41t-11.5-28.2V452.67c0-.92-.44-1.36-1.32-1.36h-18.45V415.44h18.45a1.18,1.18,0,0,0,1.32-1.36V378.2H1217v35.88a1.19,1.19,0,0,0,1.35,1.36h27.52v35.87h-27.52A1.19,1.19,0,0,0,1217,452.67Z"/><path class="cls-1" d="M1383.12,497.44v-8.93a93.07,93.07,0,0,0-1-15.6A79.22,79.22,0,0,0,1370.8,442a62.58,62.58,0,0,0-22.61-21.32q-13.9-7.67-31.55-7.68-21.93,0-37.84,11.47T1256,455.92a84.66,84.66,0,0,0-4.3,27q0,20.26,5.62,33.71a60.08,60.08,0,0,0,24.47,29.82q16.95,10.67,41.33,10.66a81.74,81.74,0,0,0,30.05-5.38A61.06,61.06,0,0,0,1376.28,536l.44-.54c.31-.37.78-1,1.32-1.73l-24.6-28.36c-.85,1.15-1.66,2.13-2.07,2.57a2.22,2.22,0,0,1-.24.27q-9.64,11.07-26.46,11.07c-6.23,0-11.51-1.15-15.78-3.49a23.88,23.88,0,0,1-9.64-9.2,38.12,38.12,0,0,1-2.68-7.82l-.3-1.36ZM1296.71,471V471c0-.14.07-.31.13-.51a25.14,25.14,0,0,1,1.36-5.65q4.52-13.26,18.44-13.24a21,21,0,0,1,12.43,3.52,22.78,22.78,0,0,1,7.88,15.64s0,.44,0,1.08h-40.35A3.24,3.24,0,0,1,1296.71,471Z"/><path class="cls-1" d="M1056.53,238.73q-2.94,7.56-2.94,20.51a68.33,68.33,0,0,0,2.67,20.24q5.09,13.75,19,13.78a20.15,20.15,0,0,0,12-3.66,19.77,19.77,0,0,0,7.21-10.39l.68-2.4h44.27a44.39,44.39,0,0,1-.44,6c-.07.61-.14,1.28-.24,2-.13,1.08-.23,1.72-.23,1.72a31.66,31.66,0,0,1-1.26,5.11,54.58,54.58,0,0,1-23.15,29.42q-16.7,10.5-38.62,10.52t-38.38-11.06a60.07,60.07,0,0,1-23.39-30.5c-3.38-8.63-5.08-18.95-5.08-31s1.7-22.37,5.08-31A56.82,56.82,0,0,1,1037,198.42q16.61-10.66,38.52-10.66,22.18,0,39,11.06t22.74,28.06a40.45,40.45,0,0,1,2.34,10.06s0,.23.07.71v.13c.06.61.13,1.53.2,2.64v3.25h-44.1l-.51-2.23c-.34-1.42-.71-2.71-1-3.79a20.37,20.37,0,0,0-7.35-8.36,20.92,20.92,0,0,0-11.64-3.22Q1061.09,226.07,1056.53,238.73Z"/><path class="cls-1" d="M1002.35,271.92V263a93.28,93.28,0,0,0-1-15.61A79.23,79.23,0,0,0,990,216.48a62.58,62.58,0,0,0-22.61-21.32q-13.9-7.66-31.55-7.69-21.93,0-37.84,11.48t-22.84,31.44a84.72,84.72,0,0,0-4.3,27q0,20.25,5.62,33.71A60.08,60.08,0,0,0,901,320.9q16.95,10.67,41.33,10.66a81.74,81.74,0,0,0,30.05-5.38,61.06,61.06,0,0,0,23.15-15.67L996,310c.31-.38.78-1,1.32-1.73l-24.6-28.36c-.85,1.15-1.66,2.13-2.07,2.57a2.22,2.22,0,0,1-.24.27q-9.65,11.07-26.46,11.07c-6.23,0-11.51-1.15-15.78-3.49a23.77,23.77,0,0,1-9.64-9.21,38.07,38.07,0,0,1-2.68-7.81l-.3-1.36Zm-86.41-26.4v-.07c0-.13.07-.3.13-.5a25.14,25.14,0,0,1,1.36-5.65q4.52-13.26,18.44-13.24a21,21,0,0,1,12.43,3.52,22.78,22.78,0,0,1,7.88,15.64s0,.44,0,1.08H915.87A3.24,3.24,0,0,1,915.94,245.52Z"/><path class="cls-1" d="M685.43,207.64v-3.19c0-8.43-2.47-15.2-7.48-20.24s-11.58-7.55-19.77-7.55-14.82,2.58-19.8,7.69-7.48,11.84-7.48,20.1v61.26c0,8.3,2.51,14.93,7.48,20s11.58,7.54,19.8,7.54,14.79-2.5,19.77-7.54,7.48-11.68,7.48-20V262.6h44.41v4.74c0,12.76-3,24-9,33.75a59.35,59.35,0,0,1-25.15,22.5q-16.14,8-37.54,8t-37.57-8.36a60.63,60.63,0,0,1-25.15-23.73q-8.93-15.37-8.93-35.64V205.54q0-20,8.93-35.21a61.26,61.26,0,0,1,25.15-23.62q16.15-8.33,37.57-8.36t37.54,8a60.08,60.08,0,0,1,25.15,22.41c6,9.61,9,20.75,9,33.34v5.59Z"/><path class="cls-1" d="M784.09,203.67q10.15-15.94,32.09-15.94,20.87,0,34.22,13.37t13.37,36.28v92H819.4V247.1q0-9.15-5.08-15.1a16.46,16.46,0,0,0-13.1-6,17,17,0,0,0-13.37,5.82q-5.07,5.79-5.08,15.24v82.31h-44.4V140.51h44.4V206Z"/><polygon class="cls-1" points="1280.05 329.41 1233.58 329.41 1232.56 327.04 1229.24 319.22 1210.63 275.22 1208.19 269.5 1207.41 267.64 1206.33 269.23 1202.74 274.41 1196.92 282.77 1193.77 287.31 1193.23 288.08 1193.23 329.41 1148.86 329.41 1148.86 140.51 1193.23 140.51 1193.23 230.21 1198.85 223.17 1212.89 205.63 1223.96 191.79 1225.49 189.89 1276.6 189.89 1273.45 193.95 1263.9 206.41 1245.83 229.9 1238.42 239.55 1237.84 240.26 1238.42 241.41 1242.17 249.4 1275.88 320.61 1278.49 326.13 1280.05 329.41"/></svg>