<svg id="Layer_1" data-name="Layer 1" xmlns="http://www.w3.org/2000/svg" viewBox="0 0 1200 558.73"><defs><style>.cls-1{fill:#c43737;}</style></defs><path class="cls-1" d="M537.3,527.18a27.61,27.61,0,0,1-4.78-.4,18.06,18.06,0,0,1-4.26-1.25,12.85,12.85,0,0,1-3.5-2.27l1.63-3.12a14.06,14.06,0,0,0,3.41,2.12,15.52,15.52,0,0,0,3.72,1.1,25,25,0,0,0,4.15.33,12.62,12.62,0,0,0,4.38-.7,6.92,6.92,0,0,0,2.93-2,4.92,4.92,0,0,0,1.17-2.92,4.08,4.08,0,0,0-2.36-4.26,13.22,13.22,0,0,0-3.61-1.19l-5-1.12a9.86,9.86,0,0,1-5.5-2.93,7.61,7.61,0,0,1-1.63-5.59,8.3,8.3,0,0,1,1.14-4,9.67,9.67,0,0,1,2.8-3,13.27,13.27,0,0,1,4-1.89,18,18,0,0,1,4.87-.65,19.21,19.21,0,0,1,6.19,1,12.22,12.22,0,0,1,4.94,3.08l-1.72,3.07a10.9,10.9,0,0,0-4.38-2.79,15.92,15.92,0,0,0-5.17-.84,12.38,12.38,0,0,0-4.38.74,7.83,7.83,0,0,0-3.12,2A4.9,4.9,0,0,0,532,502.9a4.58,4.58,0,0,0,1.07,3.52,7.69,7.69,0,0,0,3.73,1.8l5,1.11c3,.63,5.19,1.64,6.53,3.06a6.8,6.8,0,0,1,1.77,5.38,8.56,8.56,0,0,1-1.12,4,9.26,9.26,0,0,1-2.77,3,12.45,12.45,0,0,1-4,1.82A18.66,18.66,0,0,1,537.3,527.18Z"/><path class="cls-1" d="M564.27,527.18a8.46,8.46,0,0,1-4.42-1,5.53,5.53,0,0,1-2.43-2.86,8.53,8.53,0,0,1-.28-4.4L559.05,507h-4.56l.46-3h4.62l1.11-6.9h3.87l-1.12,6.9h7.74l-.47,3H563l-1.87,11.55q-.42,2.85.63,4.08a4.22,4.22,0,0,0,3.38,1.23,8.53,8.53,0,0,0,1.7-.16,9.34,9.34,0,0,0,1.52-.44l.28,3a5.91,5.91,0,0,1-2,.7A13.06,13.06,0,0,1,564.27,527.18Z"/><path class="cls-1" d="M593.2,507.87a6,6,0,0,0-2.77-3.24,10.46,10.46,0,0,0-5.19-1.12,18.8,18.8,0,0,0-3.48.33,22.58,22.58,0,0,0-3.35.9,13.62,13.62,0,0,0-2.86,1.42l1,2.85a15.9,15.9,0,0,1,4.06-1.82,15.18,15.18,0,0,1,4.09-.56q3,0,4.29,1.38c.84.92,1.1,2.3.8,4.17l-.2,1.3h-3.25a34.87,34.87,0,0,0-7.51.67,9.34,9.34,0,0,0-4.47,2.13,5.6,5.6,0,0,0-1.63,3.86,5.92,5.92,0,0,0,.86,3.63,7,7,0,0,0,2.75,2.5,8.38,8.38,0,0,0,3.94.91,9.7,9.7,0,0,0,3.47-.63,8.92,8.92,0,0,0,3-1.86,8.26,8.26,0,0,0,1.66-2.25l-.64,4.32h3.59L593.53,513A10.1,10.1,0,0,0,593.2,507.87ZM589,517.63a7.53,7.53,0,0,1-1.47,3.45,7.85,7.85,0,0,1-2.74,2.3,7.54,7.54,0,0,1-3.43.82,5.29,5.29,0,0,1-3.33-1.07,3.78,3.78,0,0,1-.19-5.5,6.24,6.24,0,0,1,3.17-1.22,41.21,41.21,0,0,1,5.71-.32h2.52Z"/><polygon class="cls-1" points="622.46 503.93 604.2 535.14 600 535.14 605.19 526.49 599.16 503.93 603.22 503.93 607.71 522.48 618.18 503.93 622.46 503.93"/><path class="cls-1" d="M651.58,527.18a15.32,15.32,0,0,1-7.61-1.79,11.51,11.51,0,0,1-4.83-5.27,18,18,0,0,1-1.35-8.6,22.09,22.09,0,0,1,1.5-7.29,18.13,18.13,0,0,1,3.53-5.71,15.47,15.47,0,0,1,5.31-3.72,17.44,17.44,0,0,1,6.86-1.31,16.61,16.61,0,0,1,6.19,1.1,11.89,11.89,0,0,1,4.52,3.05l-1.82,3.17a11.78,11.78,0,0,0-4-2.8,13.2,13.2,0,0,0-5-.88,11.87,11.87,0,0,0-6.62,1.81,12.53,12.53,0,0,0-4.4,5.11,19.33,19.33,0,0,0-1.84,7.61,15.15,15.15,0,0,0,.88,6.76,7.75,7.75,0,0,0,3.42,3.87,11.49,11.49,0,0,0,5.57,1.26,13.46,13.46,0,0,0,4.9-.87,16.53,16.53,0,0,0,4.56-2.77l1.4,3.17a15.14,15.14,0,0,1-3.24,2.23,15.59,15.59,0,0,1-3.8,1.4A18,18,0,0,1,651.58,527.18Z"/><path class="cls-1" d="M690.81,503.93l-3.59,22.83h-3.77l.69-4.43a9.24,9.24,0,0,1-3.18,3.43,9.62,9.62,0,0,1-5.19,1.42,8.39,8.39,0,0,1-4.37-1A5.5,5.5,0,0,1,669,523a11.64,11.64,0,0,1-.21-5.2L671,503.93h4l-2.19,13.79a8.42,8.42,0,0,0,0,3.33,3.26,3.26,0,0,0,1.39,2.08,5.21,5.21,0,0,0,2.84.7,7.48,7.48,0,0,0,3.78-1,7.86,7.86,0,0,0,2.75-2.63,9.82,9.82,0,0,0,1.4-3.83l2-12.48Z"/><path class="cls-1" d="M711.64,503.37l-.09,3.54-3,.28a9.62,9.62,0,0,0-4,1.09,6.61,6.61,0,0,0-2.49,2.43,10.89,10.89,0,0,0-1.26,3.51l-2,12.54h-4l3.63-22.83h3.73l-.72,4.58a8.75,8.75,0,0,1,2.79-3.23,10.39,10.39,0,0,1,5.29-1.77Z"/><path class="cls-1" d="M729.72,503.37l-.09,3.54-3,.28a9.57,9.57,0,0,0-4,1.09,6.61,6.61,0,0,0-2.49,2.43,10.66,10.66,0,0,0-1.26,3.51l-2,12.54h-4l3.62-22.83h3.74l-.72,4.58a8.75,8.75,0,0,1,2.79-3.23,10.39,10.39,0,0,1,5.29-1.77Z"/><path class="cls-1" d="M752.22,509.36a8,8,0,0,0-2.91-4.27,9.29,9.29,0,0,0-5.66-1.58,11.91,11.91,0,0,0-6.43,1.72,12.2,12.2,0,0,0-4.31,4.62,15,15,0,0,0-1.75,6.47,11.47,11.47,0,0,0,1,5.8,8.28,8.28,0,0,0,3.71,3.76,12.85,12.85,0,0,0,6,1.3,16.64,16.64,0,0,0,4.85-.75A11.22,11.22,0,0,0,751,524.2l-1.21-2.71a10.49,10.49,0,0,1-3.61,1.94,14.18,14.18,0,0,1-4,.58,8.25,8.25,0,0,1-4.33-1.07,5.65,5.65,0,0,1-2.47-3,8.59,8.59,0,0,1-.4-3.63h17.5l.14-1A13.65,13.65,0,0,0,752.22,509.36Zm-15.61,1a8.33,8.33,0,0,1,2.77-2.86,7.57,7.57,0,0,1,4.18-1.12,6,6,0,0,1,3.7,1.05,5.31,5.31,0,0,1,1.88,2.82,9,9,0,0,1,.27,3.35H735.34A11.4,11.4,0,0,1,736.61,510.38Z"/><path class="cls-1" d="M779.24,512.88l-2.19,13.88h-4L775.28,513a7.92,7.92,0,0,0,0-3.36,3.49,3.49,0,0,0-1.4-2.07,5.1,5.1,0,0,0-2.92-.72,8.05,8.05,0,0,0-3.93,1,7.42,7.42,0,0,0-2.8,2.62,10.57,10.57,0,0,0-1.42,3.88l-2,12.48h-4l3.63-22.83h3.78l-.71,4.54a8.6,8.6,0,0,1,3.32-3.58,10.3,10.3,0,0,1,5.35-1.38,8.28,8.28,0,0,1,4.38,1.05,5.64,5.64,0,0,1,2.43,3.12A11,11,0,0,1,779.24,512.88Z"/><path class="cls-1" d="M794.2,527.18a8.52,8.52,0,0,1-4.43-1,5.51,5.51,0,0,1-2.42-2.86,8.53,8.53,0,0,1-.28-4.4L789,507h-4.56l.46-3h4.61l1.12-6.9h3.87l-1.12,6.9h7.73l-.46,3H792.9L791,518.51q-.42,2.85.63,4.08a4.21,4.21,0,0,0,3.38,1.23,8.53,8.53,0,0,0,1.7-.16,9.21,9.21,0,0,0,1.51-.44l.28,3a5.93,5.93,0,0,1-2,.7A13.06,13.06,0,0,1,794.2,527.18Z"/><path class="cls-1" d="M808.32,521.82l-.61,3.87a14.37,14.37,0,0,1-.68,2.58,9.77,9.77,0,0,1-1.21,2.36,10.89,10.89,0,0,1-2,2.14l-1.68-1.67a9.16,9.16,0,0,0,1.49-1.66,7.29,7.29,0,0,0,.89-1.7c.12-.34.22-.66.31-1h-2.36l.75-4.94Z"/><path class="cls-1" d="M839.06,527.18a27.58,27.58,0,0,1-4.77-.4,18.06,18.06,0,0,1-4.26-1.25,12.85,12.85,0,0,1-3.5-2.27l1.63-3.12a14.2,14.2,0,0,0,3.4,2.12,15.59,15.59,0,0,0,3.73,1.1,25,25,0,0,0,4.15.33,12.66,12.66,0,0,0,4.38-.7,6.92,6.92,0,0,0,2.93-2,4.85,4.85,0,0,0,1.17-2.92,4.6,4.6,0,0,0-.47-2.51,4.49,4.49,0,0,0-1.89-1.75,13.22,13.22,0,0,0-3.61-1.19l-5-1.12a9.86,9.86,0,0,1-5.5-2.93,7.57,7.57,0,0,1-1.63-5.59,8.3,8.3,0,0,1,1.14-4,9.67,9.67,0,0,1,2.8-3,13.27,13.27,0,0,1,4.05-1.89,18,18,0,0,1,4.87-.65,19.32,19.32,0,0,1,6.2,1,12.25,12.25,0,0,1,4.93,3.08l-1.72,3.07a10.9,10.9,0,0,0-4.38-2.79,16,16,0,0,0-5.17-.84,12.34,12.34,0,0,0-4.38.74,7.76,7.76,0,0,0-3.12,2,4.9,4.9,0,0,0-1.26,3.12,4.54,4.54,0,0,0,1.07,3.52,7.69,7.69,0,0,0,3.73,1.8l5,1.11c3,.63,5.18,1.64,6.52,3.06a6.8,6.8,0,0,1,1.77,5.38,8.56,8.56,0,0,1-1.12,4,9.38,9.38,0,0,1-2.77,3,12.55,12.55,0,0,1-4,1.82A18.68,18.68,0,0,1,839.06,527.18Z"/><path class="cls-1" d="M866,527.18a8.52,8.52,0,0,1-4.43-1,5.56,5.56,0,0,1-2.42-2.86,8.53,8.53,0,0,1-.28-4.4L860.82,507h-4.56l.46-3h4.62l1.11-6.9h3.87l-1.12,6.9h7.74l-.47,3h-7.73l-1.87,11.55q-.42,2.85.63,4.08a4.22,4.22,0,0,0,3.38,1.23,8.53,8.53,0,0,0,1.7-.16,9.21,9.21,0,0,0,1.51-.44l.28,3a5.77,5.77,0,0,1-2,.7A13.06,13.06,0,0,1,866,527.18Z"/><path class="cls-1" d="M895,507.87a6,6,0,0,0-2.77-3.24,10.46,10.46,0,0,0-5.19-1.12,18.61,18.61,0,0,0-3.47.33,21.27,21.27,0,0,0-3.36.91,12.72,12.72,0,0,0-2.86,1.42l1,2.84a15.9,15.9,0,0,1,4.06-1.82,15.23,15.23,0,0,1,4.09-.56c2,0,3.45.46,4.29,1.37s1.1,2.31.79,4.17l-.2,1.31h-3.25a35.49,35.49,0,0,0-7.5.67,9.34,9.34,0,0,0-4.47,2.13,5.6,5.6,0,0,0-1.63,3.86,5.84,5.84,0,0,0,.87,3.64,6.88,6.88,0,0,0,2.74,2.49,8.5,8.5,0,0,0,3.94.91,9.66,9.66,0,0,0,3.47-.63,8.92,8.92,0,0,0,3-1.86,8.13,8.13,0,0,0,1.65-2.23l-.63,4.3h3.59L895.3,513A10.19,10.19,0,0,0,895,507.87Zm-4.24,9.76a7.62,7.62,0,0,1-1.46,3.45,8.07,8.07,0,0,1-2.75,2.3,7.51,7.51,0,0,1-3.43.82,5.29,5.29,0,0,1-3.33-1.07,3.43,3.43,0,0,1-1.28-3,3.39,3.39,0,0,1,1.1-2.47,6.13,6.13,0,0,1,3.17-1.22,41,41,0,0,1,5.7-.32H891Z"/><polygon class="cls-1" points="924.23 503.93 905.97 535.15 901.78 535.15 906.96 526.48 900.94 503.93 905 503.93 909.47 522.48 919.95 503.93 924.23 503.93"/><path class="cls-1" d="M953.35,527.18a15.35,15.35,0,0,1-7.61-1.79,11.44,11.44,0,0,1-4.82-5.27,17.86,17.86,0,0,1-1.36-8.6,22.61,22.61,0,0,1,1.49-7.29,18.18,18.18,0,0,1,3.55-5.71,15.28,15.28,0,0,1,5.31-3.72,17.34,17.34,0,0,1,6.84-1.31,16.63,16.63,0,0,1,6.2,1.1,11.81,11.81,0,0,1,4.52,3.05l-1.81,3.17a11.91,11.91,0,0,0-4.06-2.8,13.2,13.2,0,0,0-5-.88,11.87,11.87,0,0,0-6.62,1.81,12.53,12.53,0,0,0-4.4,5.11,19.5,19.5,0,0,0-1.84,7.61,15.15,15.15,0,0,0,.88,6.76,7.75,7.75,0,0,0,3.42,3.87,11.52,11.52,0,0,0,5.57,1.26,13.46,13.46,0,0,0,4.9-.87,16.53,16.53,0,0,0,4.56-2.77l1.4,3.17a15.14,15.14,0,0,1-3.24,2.23,15.59,15.59,0,0,1-3.8,1.4A18,18,0,0,1,953.35,527.18Z"/><path class="cls-1" d="M978.37,527.18a10.8,10.8,0,0,1-5.54-1.33,8.15,8.15,0,0,1-3.4-3.77,11.83,11.83,0,0,1-.93-5.71,15.34,15.34,0,0,1,1.09-5.17,13.45,13.45,0,0,1,2.59-4.08,11.21,11.21,0,0,1,3.82-2.68,12.39,12.39,0,0,1,4.89-.93,10.83,10.83,0,0,1,5.55,1.33,8.2,8.2,0,0,1,3.4,3.75,11.9,11.9,0,0,1,.93,5.68,15.63,15.63,0,0,1-1.1,5.2,13,13,0,0,1-2.58,4.08,11.55,11.55,0,0,1-3.83,2.67A12,12,0,0,1,978.37,527.18Zm.15-3.22a7.1,7.1,0,0,0,4.3-1.3,8.75,8.75,0,0,0,2.82-3.56,14.07,14.07,0,0,0,1.17-5.06,7.44,7.44,0,0,0-1.4-5.43,5.82,5.82,0,0,0-4.71-1.93,7.14,7.14,0,0,0-4.28,1.3,8.71,8.71,0,0,0-2.84,3.54,13,13,0,0,0-1.12,5.08,7.39,7.39,0,0,0,1.39,5.43A5.78,5.78,0,0,0,978.52,524Z"/><path class="cls-1" d="M1017.55,512.88l-2.18,13.88h-4l2.19-13.79a7.87,7.87,0,0,0,0-3.35,3.48,3.48,0,0,0-1.4-2.08,5.09,5.09,0,0,0-2.91-.72,8.14,8.14,0,0,0-3.94.95,7.52,7.52,0,0,0-2.79,2.64,10.36,10.36,0,0,0-1.42,3.86l-2,12.49h-4l3.64-22.83h3.77l-.7,4.53a8.7,8.7,0,0,1,3.31-3.58,10.4,10.4,0,0,1,5.36-1.37,8.31,8.31,0,0,1,4.38,1.05,5.58,5.58,0,0,1,2.42,3.12A10.87,10.87,0,0,1,1017.55,512.88Z"/><path class="cls-1" d="M1045.28,512.88l-2.19,13.88h-4l2.19-13.79a7.85,7.85,0,0,0,0-3.35,3.47,3.47,0,0,0-1.39-2.08,5.15,5.15,0,0,0-2.92-.72,8.17,8.17,0,0,0-3.94.95,7.52,7.52,0,0,0-2.79,2.64,10.54,10.54,0,0,0-1.42,3.86l-2,12.49h-4l3.64-22.83h3.77l-.7,4.53a8.77,8.77,0,0,1,3.31-3.58,10.43,10.43,0,0,1,5.36-1.37,8.31,8.31,0,0,1,4.38,1.05,5.64,5.64,0,0,1,2.43,3.12A11,11,0,0,1,1045.28,512.88Z"/><path class="cls-1" d="M1072.11,509.36a7.86,7.86,0,0,0-2.91-4.26,9.2,9.2,0,0,0-5.66-1.59,12,12,0,0,0-6.43,1.72,12.2,12.2,0,0,0-4.31,4.62,15.18,15.18,0,0,0-1.75,6.47,11.58,11.58,0,0,0,1,5.8,8.33,8.33,0,0,0,3.71,3.76,13,13,0,0,0,6,1.3,16.69,16.69,0,0,0,4.85-.75,11.3,11.3,0,0,0,4.19-2.23l-1.22-2.71a10.32,10.32,0,0,1-3.61,1.94,13.83,13.83,0,0,1-4,.58,8.25,8.25,0,0,1-4.33-1.07,5.73,5.73,0,0,1-2.47-3,8.59,8.59,0,0,1-.39-3.63h17.49l.14-1A13.66,13.66,0,0,0,1072.11,509.36Zm-2.8,4.26h-14.07a11.28,11.28,0,0,1,1.27-3.24,8.32,8.32,0,0,1,2.77-2.86,7.53,7.53,0,0,1,4.17-1.12,5.94,5.94,0,0,1,3.7,1.05,5.28,5.28,0,0,1,1.89,2.81A9.08,9.08,0,0,1,1069.31,513.62Z"/><path class="cls-1" d="M1087.26,527.18a11,11,0,0,1-5.78-1.38,8.31,8.31,0,0,1-3.38-3.82,12,12,0,0,1-.91-5.66,16,16,0,0,1,1-4.89,13,13,0,0,1,2.47-4.1,11.17,11.17,0,0,1,3.89-2.79,12.79,12.79,0,0,1,5.28-1,12.31,12.31,0,0,1,4.34.77,8.39,8.39,0,0,1,3.26,2.07l-1.49,2.84a7.65,7.65,0,0,0-2.7-1.81,9,9,0,0,0-3.36-.61,8.53,8.53,0,0,0-3.7.77,7.48,7.48,0,0,0-2.68,2.14,10.62,10.62,0,0,0-1.66,3.1,13.71,13.71,0,0,0-.67,3.68,7.51,7.51,0,0,0,1.4,5.43c1.08,1.35,2.81,2,5.17,2a9.09,9.09,0,0,0,3.19-.61,9.56,9.56,0,0,0,3-1.77l1.16,2.89a9.66,9.66,0,0,1-2.21,1.47,12.4,12.4,0,0,1-2.75,1A13.25,13.25,0,0,1,1087.26,527.18Z"/><path class="cls-1" d="M1109,527.18a8.52,8.52,0,0,1-4.43-1,5.47,5.47,0,0,1-2.42-2.86,8.53,8.53,0,0,1-.28-4.4l1.91-11.93h-4.57l.47-3h4.61l1.12-6.9h3.87l-1.12,6.9h7.73l-.46,3h-7.74l-1.86,11.55q-.42,2.85.63,4.08a4.21,4.21,0,0,0,3.38,1.23,8.53,8.53,0,0,0,1.7-.16,9.21,9.21,0,0,0,1.51-.44l.28,3a5.93,5.93,0,0,1-2,.7A13.15,13.15,0,0,1,1109,527.18Z"/><path class="cls-1" d="M1138.5,509.36a7.9,7.9,0,0,0-2.9-4.26,9.26,9.26,0,0,0-5.67-1.59,11.89,11.89,0,0,0-6.42,1.72,12.22,12.22,0,0,0-4.32,4.62,15,15,0,0,0-1.74,6.47,11.47,11.47,0,0,0,1,5.8,8.36,8.36,0,0,0,3.7,3.76,13,13,0,0,0,6,1.3,16.69,16.69,0,0,0,4.85-.75,11.3,11.3,0,0,0,4.19-2.23l-1.22-2.71a10.36,10.36,0,0,1-3.6,1.94,13.88,13.88,0,0,1-4,.58,8.29,8.29,0,0,1-4.34-1.07,5.67,5.67,0,0,1-2.46-3,8.59,8.59,0,0,1-.4-3.63h17.49l.14-1A13.5,13.5,0,0,0,1138.5,509.36Zm-2.8,4.26h-14.07a11.28,11.28,0,0,1,1.27-3.24,8.41,8.41,0,0,1,2.77-2.86,7.56,7.56,0,0,1,4.17-1.12,5.94,5.94,0,0,1,3.7,1.05,5.35,5.35,0,0,1,1.9,2.81A9.31,9.31,0,0,1,1135.7,513.62Z"/><path class="cls-1" d="M1165.21,493.91l-2.34,14.65a6.66,6.66,0,0,0-2.69-3.69,8.57,8.57,0,0,0-4.85-1.36,10.65,10.65,0,0,0-6.06,1.72,12,12,0,0,0-4,4.68,16.81,16.81,0,0,0-1.66,6.65,12.15,12.15,0,0,0,.85,5.56,8.06,8.06,0,0,0,3,3.73,8.63,8.63,0,0,0,4.86,1.33,10.73,10.73,0,0,0,3.64-.61,8.88,8.88,0,0,0,3-1.79,10.12,10.12,0,0,0,1.93-2.4l-.71,4.38H1164l5.22-32.85Zm-3.32,20.18a13.74,13.74,0,0,1-1.16,5,8.79,8.79,0,0,1-2.8,3.56,7,7,0,0,1-4.28,1.31,5.83,5.83,0,0,1-4.71-1.94,7.39,7.39,0,0,1-1.39-5.43,13,13,0,0,1,1.11-5,9.12,9.12,0,0,1,2.84-3.57,7.12,7.12,0,0,1,4.29-1.32,5.82,5.82,0,0,1,4.71,1.93A7.48,7.48,0,0,1,1161.89,514.09Z"/><path class="cls-1" d="M418.92,323.47V365.8H309.56A87,87,0,0,0,313,344.64h.08V323.47Z"/><path class="cls-1" d="M418.92,217.62H313.07a88.2,88.2,0,0,0-176.39,0v127h.08a87.46,87.46,0,0,0,3.43,21.16H30.83V217.62a194,194,0,1,1,388.09,0Z"/><path class="cls-1" d="M418.92,387v21.17H282.18a87.86,87.86,0,0,0,18-21.17Z"/><rect class="cls-1" x="30.83" y="471.64" width="388.08" height="21.16"/><path class="cls-1" d="M167.57,408.14H30.83V387h118.7a87.86,87.86,0,0,0,18,21.17Z"/><rect class="cls-1" x="30.83" y="429.3" width="388.08" height="21.17"/><rect class="cls-1" x="30.83" y="513.98" width="388.08" height="21.17"/><path class="cls-1" d="M971.78,342.58Q965.08,334,953.4,329a67.28,67.28,0,0,0-26.17-4.91,66.38,66.38,0,0,0-24.78,4.47,44.5,44.5,0,0,0-17.74,12.24,30.55,30.55,0,0,0-7.45,17.36s-.08.63-.19,1.53c0,0-.08,1.48-.14,3.26h36.36c.93-2.93,4.11-9,14.68-9,0,0,13.63-.74,14.56,12.38,0,.46.06.95.06,1.45V373H920.52q-22,0-33.65,9.17t-11.56,26q0,15.93,10.27,24.12t27.58,8.19q19.9,0,28.11-12.22l0,0c.06-.08.25-.32.47-.65a11.76,11.76,0,0,0,.82-1.29v12.46h35.9V361.66A30.4,30.4,0,0,0,971.78,342.58ZM942.59,399a13.73,13.73,0,0,1-5.31,11.23c-3.53,2.85-8,4.27-13.53,4.27-3.89,0-6.93-1-9.06-2.85a9.66,9.66,0,0,1-3.26-7.64,9.42,9.42,0,0,1,4.44-8.51c3-1.89,7.17-2.85,12.65-2.85h14.07Z"/><path class="cls-1" d="M640.06,285.92V386.77q0,15.93-7.14,28.17a48.26,48.26,0,0,1-20.21,18.87q-13.11,6.66-30.17,6.65t-30.18-6.65A48.77,48.77,0,0,1,532,414.94c-4.82-8.16-7.26-17.55-7.26-28.17V285.92h35.93V386.77c0,6.84,2,12.35,5.94,16.48s9.25,6.22,15.91,6.22q9.72,0,15.66-6.22c4-4.13,6-9.64,6-16.48V285.92Z"/><path class="cls-1" d="M751.75,357.31C748.43,347,743,338.85,735.51,333a40.86,40.86,0,0,0-26-8.85q-16.21,0-24.86,12l0,0a23.1,23.1,0,0,0-1.28,2.05V325.88h-35.9V478.69h35.9V428.25a12.79,12.79,0,0,0,1.15,1.75c.11.14.16.22.16.22q8,10.23,23.58,10.24t26.5-8.4a47.79,47.79,0,0,0,15.88-21.94q4.56-12,4.55-27.49A89.72,89.72,0,0,0,751.75,357.31Zm-38.28,44.3c-2.9,5.26-7.28,7.86-13.2,7.86q-8.25,0-12.76-7.64c-2.76-4.93-4.13-11.5-4.13-19.63,0-7.59,1.23-13.83,3.69-18.79q4.53-8.3,13.2-8.29c6.05,0,10.6,2.76,13.61,8.29q3.9,6.78,3.89,18.57C717.77,390.11,716.34,396.68,713.47,401.61Z"/><path class="cls-1" d="M832.77,285.92v50.36c-.47-.82-.94-1.43-1-1.59l0,0a2.13,2.13,0,0,1-.22-.27q-8-10.27-23.58-10.27t-26.5,8.3a47.15,47.15,0,0,0-15.88,21.82A78.37,78.37,0,0,0,761,381.76a89.77,89.77,0,0,0,3.45,25.32q4.77,15.5,16.13,24.43a40.84,40.84,0,0,0,26,8.95q16.23,0,24.89-12s.57-.77,1.29-1.89v12.16h35.92V285.92ZM829.1,401c-3,5.7-7.42,8.52-13.2,8.52q-9.07,0-13.64-8.3c-2.57-4.79-3.88-11.06-3.88-18.76,0-8,1.45-14.48,4.32-19.43q4.35-7.85,13.2-7.86c5.48,0,9.75,2.54,12.76,7.64q4.11,7,4.11,19.65C832.77,390.11,831.53,396.3,829.1,401Z"/><path class="cls-1" d="M1034.78,356v39.73c0,8.3,3.31,12.43,10,12.43h10.59v31.19h-14.29c-1.31,0-2.46,0-3.45,0q-18.81,0-27.9-6t-9.31-22.81V356a1,1,0,0,0-1.07-1.09H984.4v-29h14.92a1,1,0,0,0,1.07-1.1v-29h34.39v29a1,1,0,0,0,1.09,1.1h22.27v29h-22.27A1,1,0,0,0,1034.78,356Z"/><path class="cls-1" d="M1169.16,392.22V385a75.22,75.22,0,0,0-.79-12.62,64,64,0,0,0-9.17-25,50.63,50.63,0,0,0-18.29-17.25,51.91,51.91,0,0,0-25.52-6.22q-17.75,0-30.61,9.29t-18.49,25.43a68.79,68.79,0,0,0-3.47,21.82q0,16.4,4.54,27.27a48.58,48.58,0,0,0,19.8,24.13q13.71,8.63,33.43,8.62a66.2,66.2,0,0,0,24.31-4.35,49.36,49.36,0,0,0,18.73-12.68s.14-.16.36-.44.63-.79,1.07-1.39l-19.91-23a25.38,25.38,0,0,1-1.67,2.08,2.7,2.7,0,0,1-.19.22q-7.8,9-21.41,8.95a26.31,26.31,0,0,1-12.76-2.82,19.37,19.37,0,0,1-7.81-7.44,30.1,30.1,0,0,1-2.16-6.33l-.24-1.09Zm-69.9-21.36v-.06c0-.11.06-.24.11-.4a19.61,19.61,0,0,1,1.1-4.58c2.43-7.14,7.42-10.7,14.92-10.7a17,17,0,0,1,10,2.84,18.42,18.42,0,0,1,6.38,12.65s0,.36,0,.88h-32.63A2.83,2.83,0,0,1,1099.26,370.86Z"/><path class="cls-1" d="M905,182.93q-2.38,6.12-2.38,16.59a55.3,55.3,0,0,0,2.16,16.38Q908.86,227,920.11,227a16.32,16.32,0,0,0,9.75-3,16,16,0,0,0,5.83-8.4l.55-2h35.81a35.43,35.43,0,0,1-.35,4.82c-.06.5-.11,1-.19,1.65-.11.87-.2,1.39-.2,1.39a25.11,25.11,0,0,1-1,4.14,44.17,44.17,0,0,1-18.73,23.79q-13.5,8.5-31.24,8.52t-31.05-9a48.56,48.56,0,0,1-18.92-24.67c-2.74-7-4.1-15.33-4.1-25.1s1.36-18.1,4.1-25.11a46,46,0,0,1,18.81-23.88q13.44-8.62,31.16-8.62,18,0,31.57,9t18.4,22.7a32.67,32.67,0,0,1,1.89,8.13s0,.19.06.57v.11c0,.5.11,1.24.16,2.14v2.63H936.73l-.41-1.81c-.27-1.15-.57-2.19-.85-3.07a16.56,16.56,0,0,0-5.94-6.76,17,17,0,0,0-9.42-2.6C912.47,172.69,907.44,176.11,905,182.93Z"/><path class="cls-1" d="M861.14,209.78v-7.23a75.3,75.3,0,0,0-.79-12.62,64.08,64.08,0,0,0-9.18-25,50.63,50.63,0,0,0-18.29-17.25,52,52,0,0,0-25.52-6.21q-17.73,0-30.61,9.28t-18.48,25.44A68.47,68.47,0,0,0,754.79,198c0,10.92,1.54,20,4.55,27.27a48.63,48.63,0,0,0,19.79,24.12Q792.86,258,812.57,258a66.21,66.21,0,0,0,24.31-4.36A49.41,49.41,0,0,0,855.61,241l.36-.44c.24-.3.62-.8,1.06-1.4l-19.9-22.94c-.69.93-1.34,1.72-1.67,2.08l-.19.22c-5.21,6-12.33,8.95-21.42,8.95a26.34,26.34,0,0,1-12.76-2.82,19.36,19.36,0,0,1-7.8-7.45,30.24,30.24,0,0,1-2.16-6.32l-.25-1.1Zm-69.9-21.36v0a2.32,2.32,0,0,1,.11-.41,20.13,20.13,0,0,1,1.09-4.57q3.66-10.72,14.92-10.71a16.93,16.93,0,0,1,10,2.85,18.42,18.42,0,0,1,6.38,12.65s0,.35,0,.87H791.18A2.66,2.66,0,0,1,791.24,188.42Z"/><path class="cls-1" d="M604.77,157.78V155.2c0-6.82-2-12.29-6-16.37s-9.37-6.11-16-6.11-12,2.08-16,6.22-6.05,9.58-6.05,16.26v49.56c0,6.71,2,12.07,6.05,16.15s9.36,6.11,16,6.11,12-2,16-6.11,6-9.44,6-16.15v-2.52h35.92v3.83c0,10.33-2.44,19.44-7.25,27.3a48,48,0,0,1-20.35,18.21Q600,258,582.73,258t-30.4-6.76A49,49,0,0,1,532,232.06q-7.23-12.45-7.23-28.83V156.08q0-16.14,7.23-28.48a49.57,49.57,0,0,1,20.34-19.11q13.06-6.73,30.4-6.76t30.36,6.43a48.53,48.53,0,0,1,20.35,18.13,50.25,50.25,0,0,1,7.25,27v4.52Z"/><path class="cls-1" d="M684.58,154.57q8.22-12.9,26-12.9,16.88,0,27.68,10.82T749,181.84v74.45h-35.9V189.7A18.13,18.13,0,0,0,709,177.49a13.29,13.29,0,0,0-10.59-4.82,13.7,13.7,0,0,0-10.82,4.71q-4.11,4.68-4.11,12.32v66.59H647.59V103.48h35.92v53Z"/><polygon class="cls-1" points="1085.78 256.29 1048.19 256.29 1047.37 254.37 1044.68 248.04 1029.63 212.45 1027.65 207.82 1027.02 206.32 1026.15 207.6 1023.25 211.79 1018.54 218.56 1015.99 222.23 1015.55 222.85 1015.55 256.29 979.66 256.29 979.66 103.48 1015.55 103.48 1015.55 176.03 1020.1 170.34 1031.46 156.16 1040.41 144.96 1041.65 143.42 1082.99 143.42 1080.44 146.71 1072.72 156.78 1058.1 175.79 1052.11 183.59 1051.64 184.17 1052.11 185.1 1055.14 191.56 1082.41 249.17 1084.52 253.63 1085.78 256.29"/></svg>